<svg id="Layer_1" data-name="Layer 1" xmlns="http://www.w3.org/2000/svg" viewBox="0 0 1400 541.08"><defs><style>.cls-1{fill:#c59c6d;}.cls-2{fill:#fff;}</style></defs><path class="cls-1" d="M236,107.22v73.53c71.15,9,126.3,69.87,126.3,143.4S307.19,458.59,236,467.55v73.53c111.67-9.24,199.46-102.8,199.46-216.93S347.71,116.46,236,107.22Z"/><path class="cls-2" d="M0,324.15C0,438.28,87.79,531.84,199.46,541.08V467.55c-71.15-9-126.3-69.87-126.3-143.4s55.15-134.44,126.3-143.4V107.22C87.79,116.46,0,210,0,324.15Z"/><circle class="cls-1" cx="389.99" cy="55.38" r="55.38"/><circle class="cls-2" cx="1391.37" cy="449.18" r="8.63"/><path class="cls-2" d="M559.58,302.45c.26,16.1,15.35,20.24,28.92,20.24,14.22,0,24.27-5.4,24.27-15.21,0-8.17-6.41-11.57-16.72-13.33l-20.37-3.4C565,289,549,284.72,549,267.24,549,250.9,562,240,585,240c18,0,37,6.53,38.23,28.16H609.88c-1.13-7-5.16-16.6-26.66-16.6-9.81,0-20.86,4.16-20.86,14.72,0,5.53,3.64,9.93,14.7,11.82l22,3.77c7,1.25,27,4.65,27,23,0,22.88-20.5,29.42-38.6,29.42-20.25,0-41.24-7-41.24-31.81Z"/><path class="cls-2" d="M638.14,241.47h12.57V255.3H638.14Zm0,24.64h12.57V332H638.14Z"/><path class="cls-2" d="M766.72,290.13c0-12.07-7.67-15.72-15.84-15.72-11.45,0-21.64,5.41-21.64,17.73V332H716.67V290.13c0-12.07-7.67-15.72-15.84-15.72-11.45,0-21.63,6.66-21.63,19.61v38H666.62V266.11H679.2v9.94h.25c5.91-9.18,16.34-12.2,25.77-12.2,8.56,0,17.11,3.52,22.4,12.2,6-7.55,14.07-12.2,26.65-12.2,6.66,0,25,3.14,25,23.26V332H766.72Z"/><path class="cls-2" d="M795.51,241.47h12.57V255.3H795.51Zm0,24.64h12.57V332H795.51Z"/><polygon class="cls-2" points="853.75 241.47 866.32 241.47 858.56 255.3 845.99 255.3 853.75 241.47"/><path class="cls-2" d="M891.24,307.86c-5.29,19.74-17.23,26.4-34.33,26.4-26.16,0-35.84-17.73-35.84-34.83,0-19.49,11.94-35.58,35.71-35.58,17.6,0,31.56,7.92,34.2,24.27H877.65c-1.5-8.56-8.29-13.71-20-13.71-16.09,0-23.27,10.56-23.27,24.65s7.18,24.64,23.27,24.64c11.32,0,17.48-4.9,20.25-15.84Z"/><path class="cls-2" d="M554.43,368H600.7c19.74,0,30,9.05,30,25.78s-10.31,28-29.17,28H567.76v36H554.43Zm45.39,42.25c13.21,0,17.61-7.17,17.61-16.22,0-8.55-5-14.46-15.22-14.46H567.76v30.68Z"/><path class="cls-2" d="M641.53,367.28H654.1v34.58h.26c5.91-9.18,16.34-12.2,25.78-12.2,15.84,0,27.65,6.79,27.65,23.26v44.89H695.22V415.43c0-9.68-6-15.21-19.48-15.21-11.45,0-21.64,6.66-21.64,19.62v38H641.53Z"/><path class="cls-2" d="M758.66,389.66c25.66,0,38.23,16.22,38.23,35.21s-12.57,35.2-38.23,35.2-38.22-16.22-38.22-35.2S733,389.66,758.66,389.66Zm0,10.56c-18.24,0-24.89,12.7-24.89,24.65s6.65,24.64,24.89,24.64,24.9-12.7,24.9-24.64S776.89,400.22,758.66,400.22Z"/><path class="cls-2" d="M814.49,371.68h12.57v20.24h18.86v9.81H827.06v40.61c0,5.28,3.77,7.17,10.18,7.17a51.1,51.1,0,0,0,8.68-.88v10.56a81.67,81.67,0,0,1-14.09.88c-12.31,0-17.34-6-17.34-15.59V401.73H800.9v-9.81h13.59Z"/><path class="cls-2" d="M889.09,389.66c25.65,0,38.23,16.22,38.23,35.21s-12.58,35.2-38.23,35.2-38.22-16.22-38.22-35.2S863.44,389.66,889.09,389.66Zm0,10.56c-18.24,0-24.9,12.7-24.9,24.65s6.66,24.64,24.9,24.64,24.9-12.7,24.9-24.64S907.32,400.22,889.09,400.22Z"/><path class="cls-2" d="M998.78,391.92h12.57v60.36c0,23.64-11.31,33.19-38.35,33.19-14.2,0-30.55-2.26-33.19-20.49h12.57c2.26,8.55,9.93,10.69,21.88,10.69,17.86,0,24.52-9.06,24.52-19.87v-9.56h-.24c-7,10.19-17,12.2-25.54,12.2-17.6,0-36.08-9.56-36.08-33.95s18.48-34.08,36-34.08c10.81,0,20.75,3.65,25.66,11.2h.24ZM974.52,401c-15.35,0-24.27,10.06-24.27,23.63s8.92,23.27,24.27,23.27,24.26-9.69,24.26-23.27S989.73,401,974.52,401Z"/><path class="cls-2" d="M1027.1,391.92h12.57V404h.26c5.91-10.43,14.33-14.33,22.63-14.33a24.94,24.94,0,0,1,7.17.75V404a35,35,0,0,0-8.92-1.25c-12.45,0-21.14,7.29-21.14,21.62v33.45H1027.1Z"/><path class="cls-2" d="M1077.88,412.54c1.64-16.47,13-22.88,32.7-22.88,13.45,0,30.3,3.39,30.3,18.73v35.46c0,3.9,1.76,5.66,5.65,5.66a24.9,24.9,0,0,0,4.41-.5v8.8a64.72,64.72,0,0,1-9.81.75c-6.29,0-10.44-1.76-11.32-9.18-5,6.8-17.35,10.69-28,10.69-21.88,0-26.78-11.32-26.78-19.87,0-12.07,7.16-18.22,28.3-20.49l14.33-1.51c7-.76,11.44-2,11.44-7.92,0-9-8.8-10.81-19-10.81-10.81,0-20,2.89-20.37,13.07Zm51.18,10.82c-1.89,2.13-5.28,3-12.32,3.89L1102.53,429c-9.81,1.26-15,3.9-15,10.82,0,6.16,6.15,10.43,15.34,10.43,14.21,0,26.15-7.54,26.15-18.48Z"/><path class="cls-2" d="M1160.05,391.92h12.57v9.18h.26c4.9-6.92,15.33-10.69,25-10.69,19.86,0,35.83,12.7,35.83,34.83s-16,34.83-35.83,34.83c-9.81,0-20-3.52-25-10.69h-.26v33.83h-12.57Zm36.21,9.06c-17.1,0-24.39,11.82-24.39,24.26,0,15.09,9.68,24.27,24.39,24.27s24.14-9.18,24.14-24.27C1220.4,412.8,1213.24,401,1196.26,401Z"/><path class="cls-2" d="M1246.6,367.28h12.58v34.58h.25c5.91-9.18,16.34-12.2,25.78-12.2,15.84,0,27.66,6.79,27.66,23.26v44.89H1300.3V415.43c0-9.68-6-15.21-19.49-15.21-11.45,0-21.63,6.66-21.63,19.62v38H1246.6Z"/><path class="cls-2" d="M1377.74,391.92h14.09l-34.46,77.21c-6.28,13.95-11.19,16.34-22.88,16.34-3.14,0-6.28-.25-9.56-.5V474.41c2.26.12,4.28.5,7.3.5,7.79,0,9.67-1.63,13.7-10.06l2.9-6-30.43-66.9h14.45L1355.49,444Z"/></svg>